<svg width="64" height="64" viewBox="0 0 64 64" fill="none" xmlns="http://www.w3.org/2000/svg">
<path d="M20 36C16 36 12 32 12 28C12 24 16 20 20 20C22 18 26 16 32 16C38 16 42 18 44 20C48 20 52 24 52 28C52 32 48 36 44 36H20Z" fill="#43e97b" opacity="0.1"/>
<path d="M20 36C16 36 12 32 12 28C12 24 16 20 20 20C22 18 26 16 32 16C38 16 42 18 44 20C48 20 52 24 52 28C52 32 48 36 44 36H20Z" stroke="#43e97b" stroke-width="2"/>
<rect x="28" y="40" width="8" height="16" rx="1" fill="#43e97b" opacity="0.3"/>
<rect x="20" y="44" width="8" height="12" rx="1" fill="#43e97b" opacity="0.2"/>
<rect x="36" y="42" width="8" height="14" rx="1" fill="#43e97b" opacity="0.2"/>
<circle cx="32" cy="26" r="2" fill="#43e97b"/>
<circle cx="24" cy="28" r="1" fill="#43e97b"/>
<circle cx="40" cy="28" r="1" fill="#43e97b"/>
</svg>